# xmcd
#
# Track frame offsets: 
#        150
#        21026
#        50995
#        71188
#        99619
#        119974
#        138100
#        156696
#        171317
#        189641
#
# Disc length: 2855 seconds
#
# Revision: 3
# Processed by: cddbd v1.5.2PL0 Copyright (c) Steve Scherf et al.
# Submitted via: ExactAudioCopy v1.0b3
#
DISCID=a00b250a
DTITLE=Issac Delgado - En Primera Plana
DYEAR=2007
DGENRE=Salsa
TTITLE0=La Mujer Que Más Te Duele [feat. Victor Manuelle]
TTITLE1=Medley
TTITLE2=Soñé-La Campaña [feat Fragancia]
TTITLE3=Cemento, Ladrillo Y Arena
TTITLE4=Vengo Venenoso
TTITLE5=Paquito Va
TTITLE6=En Primera Plana
TTITLE7=De 2 A 3
TTITLE8=Deja Ese Gente
TTITLE9=Como Se Toca, Se Baila
EXTD=YEAR: 2007
EXTT0=
EXTT1=
EXTT2=
EXTT3=
EXTT4=
EXTT5=
EXTT6=
EXTT7=
EXTT8=
EXTT9=
PLAYORDER=
